<svg xmlns="http://www.w3.org/2000/svg" width="20" height="20" viewBox="0 0 20 20">
  <g id="airplane-shape" transform="translate(0 -0.002)">
    <path id="Path_444" data-name="Path 444" d="M18.685,4.04A5.788,5.788,0,0,0,20,.985a1.13,1.13,0,0,0-.155-.624.5.5,0,0,0-.091-.116.524.524,0,0,0-.107-.083A1.112,1.112,0,0,0,19.016,0a5.772,5.772,0,0,0-3.054,1.315,26.318,26.318,0,0,0-3.007,2.9q-.313.33-.66.694L9.912,4.194l.007-.007a.534.534,0,0,0,0-.752L9.487,3a.536.536,0,0,0-.379-.157A.526.526,0,0,0,8.731,3l-.644.644-.341-.1a.533.533,0,0,0-.043-.7l-.432-.432a.535.535,0,0,0-.379-.156.522.522,0,0,0-.375.156L5.927,3,3.5,2.274a.606.606,0,0,0-.173-.025.642.642,0,0,0-.448.181l-.852.852a.5.5,0,0,0-.15.351.489.489,0,0,0,.26.438L7.236,6.918a.889.889,0,0,1,.124.094L8.812,8.464C7.453,9.9,6.243,11.282,5.3,12.487c-.088.112-.171.221-.253.33l-3.941-.358a.534.534,0,0,0-.068,0,.727.727,0,0,0-.488.2l-.4.4A.493.493,0,0,0,0,13.4a.484.484,0,0,0,.287.446l2.772,1.317a.648.648,0,0,1,.106.076l.23.228A1.683,1.683,0,0,0,3.285,16a.7.7,0,0,0,.193.511l.01.009,0,0a.7.7,0,0,0,.51.191,1.7,1.7,0,0,0,.529-.11l.234.233a.632.632,0,0,1,.073.1L6.15,19.711A.49.49,0,0,0,6.592,20h0a.493.493,0,0,0,.35-.148l.407-.408a.725.725,0,0,0,.194-.487c0-.023,0-.04,0-.05l-.359-3.955c.108-.081.217-.165.33-.252,1.207-.945,2.594-2.156,4.022-3.512l1.453,1.455a.779.779,0,0,1,.095.125l2.84,5.085a.5.5,0,0,0,.793.116l.858-.857a.65.65,0,0,0,.176-.447.613.613,0,0,0-.023-.167L17,14.076l.59-.591a.534.534,0,0,0,0-.753l-.433-.433a.534.534,0,0,0-.7-.044l-.1-.339L17,11.27a.538.538,0,0,0,.155-.378A.527.527,0,0,0,17,10.516l-.431-.431a.533.533,0,0,0-.757,0l0,0-.714-2.382c.247-.235.48-.459.7-.669A26.219,26.219,0,0,0,18.685,4.04Z" fill="#414141"/>
  </g>
</svg>
