<svg xmlns="http://www.w3.org/2000/svg" width="344" height="49" viewBox="0 0 344 49">
<g>
<g>
<g>
<path fill="#fff" d="M.5 49c-.158 0-.327-.002-.5-.005V.005a24.346 24.346 0 0 1 10.037 1.92c2.917 1.234 5.537 3.001 7.787 5.25A24.409 24.409 0 0 1 25 24.5a24.422 24.422 0 0 1-7.176 17.325A24.419 24.419 0 0 1 .5 49z"/>
</g>
<g opacity=".7">
<path fill="none" stroke="#e5e5e5" stroke-dasharray="5 5" stroke-miterlimit="20" stroke-width=".5" d="M320.5 24.5h-290"/></g><g>
<path fill="#fff" d="M344 48.996h-.002v-.001a24.432 24.432 0 0 1-16.986-7.335A24.358 24.358 0 0 1 320 24.5a24.36 24.36 0 0 1 7.013-17.16A24.437 24.437 0 0 1 344 .007z"/>
</g></g></g></svg>