<svg xmlns="http://www.w3.org/2000/svg" width="20.801" height="15.887" viewBox="0 0 20.801 15.887">
  <g id="comment" opacity="0.62">
    <path id="Path_382" data-name="Path 382" d="M0,19.47V9.292A5.716,5.716,0,0,1,5.709,3.583H15.09A5.716,5.716,0,0,1,20.8,9.292v1.756a5.716,5.716,0,0,1-5.709,5.709H5.841ZM5.709,4.856A4.441,4.441,0,0,0,1.273,9.292v8.183l4.288-1.992h9.531a4.441,4.441,0,0,0,4.436-4.436V9.291A4.442,4.442,0,0,0,15.09,4.855H5.709ZM6.128,9.2a1.21,1.21,0,1,1-1.21,1.21A1.21,1.21,0,0,1,6.128,9.2Zm8.543,0a1.21,1.21,0,1,1-1.21,1.21A1.21,1.21,0,0,1,14.671,9.2ZM10.4,9.2a1.21,1.21,0,1,1-1.21,1.21A1.21,1.21,0,0,1,10.4,9.2Z" transform="translate(0 -3.583)" fill="#010002"/>
  </g>
</svg>
