<svg id="menu" xmlns="http://www.w3.org/2000/svg" width="15.565" height="15.565" viewBox="0 0 15.565 15.565">
  <g id="Group_443" data-name="Group 443">
    <g id="Group_442" data-name="Group 442">
      <path id="Path_383" data-name="Path 383" d="M5.375,0H1.8A1.8,1.8,0,0,0,0,1.8V5.375a1.8,1.8,0,0,0,1.8,1.8H5.375a1.8,1.8,0,0,0,1.8-1.8V1.8A1.8,1.8,0,0,0,5.375,0Zm.584,5.375a.585.585,0,0,1-.584.584H1.8a.585.585,0,0,1-.584-.584V1.8A.585.585,0,0,1,1.8,1.216H5.375a.585.585,0,0,1,.584.584Z" fill="#afafaf"/>
    </g>
  </g>
  <g id="Group_445" data-name="Group 445" transform="translate(8.391)">
    <g id="Group_444" data-name="Group 444">
      <path id="Path_384" data-name="Path 384" d="M281.35,0h-3.526A1.826,1.826,0,0,0,276,1.824V5.35a1.826,1.826,0,0,0,1.824,1.824h3.526a1.826,1.826,0,0,0,1.824-1.824V1.824A1.826,1.826,0,0,0,281.35,0Zm.608,5.35a.609.609,0,0,1-.608.608h-3.526a.609.609,0,0,1-.608-.608V1.824a.609.609,0,0,1,.608-.608h3.526a.609.609,0,0,1,.608.608Z" transform="translate(-276)" fill="#afafaf"/>
    </g>
  </g>
  <g id="Group_447" data-name="Group 447" transform="translate(0 8.391)">
    <g id="Group_446" data-name="Group 446">
      <path id="Path_385" data-name="Path 385" d="M5.375,276H1.8A1.8,1.8,0,0,0,0,277.8v3.575a1.8,1.8,0,0,0,1.8,1.8H5.375a1.8,1.8,0,0,0,1.8-1.8V277.8A1.8,1.8,0,0,0,5.375,276Zm.584,5.375a.585.585,0,0,1-.584.584H1.8a.585.585,0,0,1-.584-.584V277.8a.585.585,0,0,1,.584-.584H5.375a.585.585,0,0,1,.584.584Z" transform="translate(0 -276)" fill="#afafaf"/>
    </g>
  </g>
  <g id="Group_449" data-name="Group 449" transform="translate(8.391 8.391)">
    <g id="Group_448" data-name="Group 448">
      <path id="Path_386" data-name="Path 386" d="M281.35,276h-3.526A1.826,1.826,0,0,0,276,277.824v3.526a1.826,1.826,0,0,0,1.824,1.824h3.526a1.826,1.826,0,0,0,1.824-1.824v-3.526A1.826,1.826,0,0,0,281.35,276Zm.608,5.35a.609.609,0,0,1-.608.608h-3.526a.609.609,0,0,1-.608-.608v-3.526a.609.609,0,0,1,.608-.608h3.526a.609.609,0,0,1,.608.608Z" transform="translate(-276 -276)" fill="#afafaf"/>
    </g>
  </g>
</svg>
