<svg xmlns="http://www.w3.org/2000/svg" width="13.442" height="15.565" viewBox="0 0 13.442 15.565">
  <g id="list" transform="translate(-0.247 0)" opacity="0.996">
    <g id="Group_441" data-name="Group 441" transform="translate(0.247 0)">
      <path id="Path_380" data-name="Path 380" d="M195.047,201h-11.2a1.417,1.417,0,0,0-.793.214.616.616,0,0,0-.327.519V203.2a.616.616,0,0,0,.327.519,1.417,1.417,0,0,0,.793.214h11.2a1.416,1.416,0,0,0,.793-.214.616.616,0,0,0,.327-.519v-1.467a.616.616,0,0,0-.327-.519A1.416,1.416,0,0,0,195.047,201Z" transform="translate(-182.725 -194.683)" fill="#ff5927"/>
      <path id="Path_381" data-name="Path 381" d="M195.047,347.177h-11.2a1.417,1.417,0,0,0-.793.214.616.616,0,0,0-.327.519v1.467a.616.616,0,0,0,.327.52,1.417,1.417,0,0,0,.793.214h11.2a1.417,1.417,0,0,0,.793-.214.616.616,0,0,0,.327-.52V347.91a.616.616,0,0,0-.327-.519A1.418,1.418,0,0,0,195.047,347.177Z" transform="translate(-182.725 -334.545)" fill="#ff5927"/>
      <path id="Path_382" data-name="Path 382" d="M195.84,55.032a1.417,1.417,0,0,0-.793-.214h-11.2a1.417,1.417,0,0,0-.793.214.616.616,0,0,0-.327.519v1.467a.616.616,0,0,0,.327.519,1.417,1.417,0,0,0,.793.214h11.2a1.417,1.417,0,0,0,.793-.214.616.616,0,0,0,.327-.519V55.551A.616.616,0,0,0,195.84,55.032Z" transform="translate(-182.725 -54.818)" fill="#ff5927"/>
    </g>
  </g>
</svg>
