<svg xmlns="http://www.w3.org/2000/svg" width="18.097" height="18" viewBox="0 0 18.097 18">
  <g id="edit" transform="translate(0 -0.269)">
    <path id="Path_561" data-name="Path 561" d="M17.578,29.214a.474.474,0,0,0-.474.474V33.9a1.425,1.425,0,0,1-1.423,1.423H2.372A1.425,1.425,0,0,1,.949,33.9V21.54a1.425,1.425,0,0,1,1.423-1.423H6.583a.474.474,0,1,0,0-.949H2.372A2.374,2.374,0,0,0,0,21.54V33.9a2.374,2.374,0,0,0,2.372,2.372H15.681A2.374,2.374,0,0,0,18.052,33.9V29.688A.474.474,0,0,0,17.578,29.214Zm0,0" transform="translate(0 -18.003)" fill="#4a4a4a"/>
    <path id="Path_562" data-name="Path 562" d="M156.367,39.254l6.926-6.926,2.234,2.234L158.6,41.488Zm0,0" transform="translate(-148.95 -30.539)" fill="#4a4a4a"/>
    <path id="Path_563" data-name="Path 563" d="M132.543,199.687l2.468-.684-1.785-1.785Zm0,0" transform="translate(-126.256 -187.608)" fill="#4a4a4a"/>
    <path id="Path_564" data-name="Path 564" d="M318.707.615a1.187,1.187,0,0,0-1.677,0l-.5.5,2.234,2.234.5-.5a1.187,1.187,0,0,0,0-1.677Zm0,0" transform="translate(-301.514)" fill="#4a4a4a"/>
  </g>
</svg>
