<svg xmlns="http://www.w3.org/2000/svg" width="16.839" height="16.507" viewBox="0 0 16.839 16.507">
  <path id="Path_16834" data-name="Path 16834" d="M411.3,238.339l.659.659a.388.388,0,0,1,0,.547l-4.192,4.19a.379.379,0,0,1-.4.093l-.986-.329a.376.376,0,0,1-.253-.277.372.372,0,0,1,.1-.363l4.519-4.52a.388.388,0,0,1,.547,0Zm6.367-10.72-.086.076a1.574,1.574,0,0,0-.413,1.693,1.5,1.5,0,0,1-.449,1.745c-.637.5-2.674,2.569-3.436,2.142a4.223,4.223,0,0,0-4.756.793.375.375,0,0,0-.129.277.386.386,0,0,0,.115.284l7.155,7.155a.366.366,0,0,0,.282.112.37.37,0,0,0,.277-.127,4.227,4.227,0,0,0,.8-4.758c-.427-.762,1.638-2.8,2.139-3.433a1.5,1.5,0,0,1,1.745-.449,1.515,1.515,0,0,0,.59.093,1.494,1.494,0,0,0,1.1-.509l.081-.086c1.48-1.635-3.376-6.492-5.014-5.009Zm-3.655,7.351c-2.292-2.292-3.445-1-2.92-.477l3.419,3.416c.458.461,1.793-.647-.5-2.939Zm5.974-6.372c1.292.867,1.163,1.323.721,1.676s-2.7-1.7-2.4-2.149S419.428,228.224,419.986,228.6Z" transform="translate(-406.12 -227.342)" fill="#ff6127" fill-rule="evenodd"/>
</svg>
