<svg xmlns="http://www.w3.org/2000/svg" width="17.857" height="15.887" viewBox="0 0 17.857 15.887">
  <path id="heart" d="M8.928,15.887a1.047,1.047,0,0,1-.69-.259C7.517,15,6.821,14.4,6.208,13.881l0,0A37.761,37.761,0,0,1,1.771,9.717,6.646,6.646,0,0,1,0,5.366,5.581,5.581,0,0,1,1.417,1.555,4.8,4.8,0,0,1,4.988,0,4.492,4.492,0,0,1,7.794.969,5.74,5.74,0,0,1,8.928,2.153,5.741,5.741,0,0,1,10.063.969,4.491,4.491,0,0,1,12.868,0,4.8,4.8,0,0,1,16.44,1.555a5.581,5.581,0,0,1,1.416,3.812,6.646,6.646,0,0,1-1.771,4.35,37.757,37.757,0,0,1-4.433,4.161c-.615.524-1.311,1.117-2.034,1.75a1.048,1.048,0,0,1-.69.259ZM4.988,1.046a3.767,3.767,0,0,0-2.8,1.218,4.54,4.54,0,0,0-1.14,3.1A5.592,5.592,0,0,0,2.576,9.05a37.16,37.16,0,0,0,4.306,4.033l0,0C7.5,13.61,8.2,14.2,8.927,14.84c.731-.637,1.43-1.233,2.047-1.758A37.169,37.169,0,0,0,15.28,9.05a5.593,5.593,0,0,0,1.53-3.683,4.54,4.54,0,0,0-1.14-3.1,3.767,3.767,0,0,0-2.8-1.218A3.469,3.469,0,0,0,10.7,1.8,5.076,5.076,0,0,0,9.5,3.193a.66.66,0,0,1-1.134,0A5.071,5.071,0,0,0,7.154,1.8a3.469,3.469,0,0,0-2.166-.75Zm0,0" transform="translate(0 0)" opacity="0.62"/>
</svg>
