<svg xmlns="http://www.w3.org/2000/svg" width="23" height="22.617" viewBox="0 0 23 22.617">
  <g id="hotel" transform="translate(0 -4)">
    <g id="Group_679" data-name="Group 679" transform="translate(0 4)">
      <g id="Group_678" data-name="Group 678" transform="translate(0 0)">
        <path id="Path_569" data-name="Path 569" d="M22.617,7.45H18.4V4.383A.383.383,0,0,0,18.017,4H4.983a.383.383,0,0,0-.383.383V9.75H.383A.383.383,0,0,0,0,10.133V25.85a.383.383,0,1,0,.767,0V10.517H4.6V26.233a.383.383,0,0,0,.383.383H18.017a.383.383,0,0,0,.383-.383V8.217h3.833V25.85a.383.383,0,1,0,.767,0V7.833A.383.383,0,0,0,22.617,7.45Zm-11.5,18.4H9.583V22.4h1.533Zm2.3,0H11.883V22.4h1.533Zm4.217,0h-3.45V22.017a.383.383,0,0,0-.383-.383H9.2a.383.383,0,0,0-.383.383V25.85H5.367V4.767H17.633Z" transform="translate(0 -4)"/>
      </g>
    </g>
    <g id="Group_681" data-name="Group 681" transform="translate(6.133 5.533)">
      <g id="Group_680" data-name="Group 680">
        <path id="Path_570" data-name="Path 570" d="M130.683,36h-2.3a.383.383,0,0,0-.383.383v2.3a.383.383,0,0,0,.383.383h2.3a.383.383,0,0,0,.383-.383v-2.3A.383.383,0,0,0,130.683,36Zm-.383,2.3h-1.533V36.767H130.3Z" transform="translate(-128 -36)"/>
      </g>
    </g>
    <g id="Group_683" data-name="Group 683" transform="translate(9.967 5.533)">
      <g id="Group_682" data-name="Group 682">
        <path id="Path_571" data-name="Path 571" d="M210.683,36h-2.3a.383.383,0,0,0-.383.383v2.3a.383.383,0,0,0,.383.383h2.3a.383.383,0,0,0,.383-.383v-2.3A.383.383,0,0,0,210.683,36Zm-.383,2.3h-1.533V36.767H210.3Z" transform="translate(-208 -36)"/>
      </g>
    </g>
    <g id="Group_685" data-name="Group 685" transform="translate(13.8 5.533)">
      <g id="Group_684" data-name="Group 684">
        <path id="Path_572" data-name="Path 572" d="M290.683,36h-2.3a.383.383,0,0,0-.383.383v2.3a.383.383,0,0,0,.383.383h2.3a.383.383,0,0,0,.383-.383v-2.3A.383.383,0,0,0,290.683,36Zm-.383,2.3h-1.533V36.767H290.3Z" transform="translate(-288 -36)"/>
      </g>
    </g>
    <g id="Group_687" data-name="Group 687" transform="translate(6.133 9.367)">
      <g id="Group_686" data-name="Group 686">
        <path id="Path_573" data-name="Path 573" d="M130.683,116h-2.3a.383.383,0,0,0-.383.383v2.3a.383.383,0,0,0,.383.383h2.3a.383.383,0,0,0,.383-.383v-2.3A.383.383,0,0,0,130.683,116Zm-.383,2.3h-1.533v-1.533H130.3Z" transform="translate(-128 -116)"/>
      </g>
    </g>
    <g id="Group_689" data-name="Group 689" transform="translate(9.967 9.367)">
      <g id="Group_688" data-name="Group 688">
        <path id="Path_574" data-name="Path 574" d="M210.683,116h-2.3a.383.383,0,0,0-.383.383v2.3a.383.383,0,0,0,.383.383h2.3a.383.383,0,0,0,.383-.383v-2.3A.383.383,0,0,0,210.683,116Zm-.383,2.3h-1.533v-1.533H210.3Z" transform="translate(-208 -116)"/>
      </g>
    </g>
    <g id="Group_691" data-name="Group 691" transform="translate(13.8 9.367)">
      <g id="Group_690" data-name="Group 690">
        <path id="Path_575" data-name="Path 575" d="M290.683,116h-2.3a.383.383,0,0,0-.383.383v2.3a.383.383,0,0,0,.383.383h2.3a.383.383,0,0,0,.383-.383v-2.3A.383.383,0,0,0,290.683,116Zm-.383,2.3h-1.533v-1.533H290.3Z" transform="translate(-288 -116)"/>
      </g>
    </g>
    <g id="Group_693" data-name="Group 693" transform="translate(6.133 13.2)">
      <g id="Group_692" data-name="Group 692">
        <path id="Path_576" data-name="Path 576" d="M130.683,196h-2.3a.383.383,0,0,0-.383.383v2.3a.383.383,0,0,0,.383.383h2.3a.383.383,0,0,0,.383-.383v-2.3A.383.383,0,0,0,130.683,196Zm-.383,2.3h-1.533v-1.533H130.3Z" transform="translate(-128 -196)"/>
      </g>
    </g>
    <g id="Group_695" data-name="Group 695" transform="translate(9.967 13.2)">
      <g id="Group_694" data-name="Group 694">
        <path id="Path_577" data-name="Path 577" d="M210.683,196h-2.3a.383.383,0,0,0-.383.383v2.3a.383.383,0,0,0,.383.383h2.3a.383.383,0,0,0,.383-.383v-2.3A.383.383,0,0,0,210.683,196Zm-.383,2.3h-1.533v-1.533H210.3Z" transform="translate(-208 -196)"/>
      </g>
    </g>
    <g id="Group_697" data-name="Group 697" transform="translate(13.8 13.2)">
      <g id="Group_696" data-name="Group 696">
        <path id="Path_578" data-name="Path 578" d="M290.683,196h-2.3a.383.383,0,0,0-.383.383v2.3a.383.383,0,0,0,.383.383h2.3a.383.383,0,0,0,.383-.383v-2.3A.383.383,0,0,0,290.683,196Zm-.383,2.3h-1.533v-1.533H290.3Z" transform="translate(-288 -196)"/>
      </g>
    </g>
    <g id="Group_699" data-name="Group 699" transform="translate(6.133 17.033)">
      <g id="Group_698" data-name="Group 698">
        <path id="Path_579" data-name="Path 579" d="M130.683,276h-2.3a.383.383,0,0,0-.383.383v2.3a.383.383,0,0,0,.383.383h2.3a.383.383,0,0,0,.383-.383v-2.3A.383.383,0,0,0,130.683,276Zm-.383,2.3h-1.533v-1.533H130.3Z" transform="translate(-128 -276)"/>
      </g>
    </g>
    <g id="Group_701" data-name="Group 701" transform="translate(9.967 17.033)">
      <g id="Group_700" data-name="Group 700">
        <path id="Path_580" data-name="Path 580" d="M210.683,276h-2.3a.383.383,0,0,0-.383.383v2.3a.383.383,0,0,0,.383.383h2.3a.383.383,0,0,0,.383-.383v-2.3A.383.383,0,0,0,210.683,276Zm-.383,2.3h-1.533v-1.533H210.3Z" transform="translate(-208 -276)"/>
      </g>
    </g>
    <g id="Group_703" data-name="Group 703" transform="translate(13.8 17.033)">
      <g id="Group_702" data-name="Group 702">
        <path id="Path_581" data-name="Path 581" d="M290.683,276h-2.3a.383.383,0,0,0-.383.383v2.3a.383.383,0,0,0,.383.383h2.3a.383.383,0,0,0,.383-.383v-2.3A.383.383,0,0,0,290.683,276Zm-.383,2.3h-1.533v-1.533H290.3Z" transform="translate(-288 -276)"/>
      </g>
    </g>
    <g id="Group_705" data-name="Group 705" transform="translate(1.533 11.283)">
      <g id="Group_704" data-name="Group 704" transform="translate(0 0)">
        <path id="Path_582" data-name="Path 582" d="M32.767,156h-.383a.383.383,0,0,0-.383.383v.383a.383.383,0,0,0,.383.383h.383a.383.383,0,0,0,.383-.383v-.383A.383.383,0,0,0,32.767,156Z" transform="translate(-32 -156)"/>
      </g>
    </g>
    <g id="Group_707" data-name="Group 707" transform="translate(3.067 11.283)">
      <g id="Group_706" data-name="Group 706" transform="translate(0 0)">
        <path id="Path_583" data-name="Path 583" d="M64.767,156h-.383a.383.383,0,0,0-.383.383v.383a.383.383,0,0,0,.383.383h.383a.383.383,0,0,0,.383-.383v-.383A.383.383,0,0,0,64.767,156Z" transform="translate(-64 -156)"/>
      </g>
    </g>
    <g id="Group_709" data-name="Group 709" transform="translate(1.533 12.817)">
      <g id="Group_708" data-name="Group 708">
        <path id="Path_584" data-name="Path 584" d="M32.767,188h-.383a.383.383,0,0,0-.383.383v.383a.383.383,0,0,0,.383.383h.383a.383.383,0,0,0,.383-.383v-.383A.383.383,0,0,0,32.767,188Z" transform="translate(-32 -188)"/>
      </g>
    </g>
    <g id="Group_711" data-name="Group 711" transform="translate(3.067 12.817)">
      <g id="Group_710" data-name="Group 710">
        <path id="Path_585" data-name="Path 585" d="M64.767,188h-.383a.383.383,0,0,0-.383.383v.383a.383.383,0,0,0,.383.383h.383a.383.383,0,0,0,.383-.383v-.383A.383.383,0,0,0,64.767,188Z" transform="translate(-64 -188)"/>
      </g>
    </g>
    <g id="Group_713" data-name="Group 713" transform="translate(1.533 14.35)">
      <g id="Group_712" data-name="Group 712">
        <path id="Path_586" data-name="Path 586" d="M32.767,220h-.383a.383.383,0,0,0-.383.383v.383a.383.383,0,0,0,.383.383h.383a.383.383,0,0,0,.383-.383v-.383A.383.383,0,0,0,32.767,220Z" transform="translate(-32 -220)"/>
      </g>
    </g>
    <g id="Group_715" data-name="Group 715" transform="translate(3.067 14.35)">
      <g id="Group_714" data-name="Group 714">
        <path id="Path_587" data-name="Path 587" d="M64.767,220h-.383a.383.383,0,0,0-.383.383v.383a.383.383,0,0,0,.383.383h.383a.383.383,0,0,0,.383-.383v-.383A.383.383,0,0,0,64.767,220Z" transform="translate(-64 -220)"/>
      </g>
    </g>
    <g id="Group_717" data-name="Group 717" transform="translate(1.533 15.883)">
      <g id="Group_716" data-name="Group 716">
        <path id="Path_588" data-name="Path 588" d="M32.767,252h-.383a.383.383,0,0,0-.383.383v.383a.383.383,0,0,0,.383.383h.383a.383.383,0,0,0,.383-.383v-.383A.383.383,0,0,0,32.767,252Z" transform="translate(-32 -252)"/>
      </g>
    </g>
    <g id="Group_719" data-name="Group 719" transform="translate(3.067 15.883)">
      <g id="Group_718" data-name="Group 718">
        <path id="Path_589" data-name="Path 589" d="M64.767,252h-.383a.383.383,0,0,0-.383.383v.383a.383.383,0,0,0,.383.383h.383a.383.383,0,0,0,.383-.383v-.383A.383.383,0,0,0,64.767,252Z" transform="translate(-64 -252)"/>
      </g>
    </g>
    <g id="Group_721" data-name="Group 721" transform="translate(1.533 17.417)">
      <g id="Group_720" data-name="Group 720">
        <path id="Path_590" data-name="Path 590" d="M32.767,284h-.383a.383.383,0,0,0-.383.383v.383a.383.383,0,0,0,.383.383h.383a.383.383,0,0,0,.383-.383v-.383A.383.383,0,0,0,32.767,284Z" transform="translate(-32 -284)"/>
      </g>
    </g>
    <g id="Group_723" data-name="Group 723" transform="translate(3.067 17.417)">
      <g id="Group_722" data-name="Group 722">
        <path id="Path_591" data-name="Path 591" d="M64.767,284h-.383a.383.383,0,0,0-.383.383v.383a.383.383,0,0,0,.383.383h.383a.383.383,0,0,0,.383-.383v-.383A.383.383,0,0,0,64.767,284Z" transform="translate(-64 -284)"/>
      </g>
    </g>
    <g id="Group_725" data-name="Group 725" transform="translate(1.533 18.95)">
      <g id="Group_724" data-name="Group 724" transform="translate(0 0)">
        <path id="Path_592" data-name="Path 592" d="M32.767,316h-.383a.383.383,0,0,0-.383.383v.383a.383.383,0,0,0,.383.383h.383a.383.383,0,0,0,.383-.383v-.383A.383.383,0,0,0,32.767,316Z" transform="translate(-32 -316)"/>
      </g>
    </g>
    <g id="Group_727" data-name="Group 727" transform="translate(3.067 18.95)">
      <g id="Group_726" data-name="Group 726" transform="translate(0 0)">
        <path id="Path_593" data-name="Path 593" d="M64.767,316h-.383a.383.383,0,0,0-.383.383v.383a.383.383,0,0,0,.383.383h.383a.383.383,0,0,0,.383-.383v-.383A.383.383,0,0,0,64.767,316Z" transform="translate(-64 -316)"/>
      </g>
    </g>
    <g id="Group_729" data-name="Group 729" transform="translate(1.533 20.483)">
      <g id="Group_728" data-name="Group 728">
        <path id="Path_594" data-name="Path 594" d="M32.767,348h-.383a.383.383,0,0,0-.383.383v.383a.383.383,0,0,0,.383.383h.383a.383.383,0,0,0,.383-.383v-.383A.383.383,0,0,0,32.767,348Z" transform="translate(-32 -348)"/>
      </g>
    </g>
    <g id="Group_731" data-name="Group 731" transform="translate(3.067 20.483)">
      <g id="Group_730" data-name="Group 730">
        <path id="Path_595" data-name="Path 595" d="M64.767,348h-.383a.383.383,0,0,0-.383.383v.383a.383.383,0,0,0,.383.383h.383a.383.383,0,0,0,.383-.383v-.383A.383.383,0,0,0,64.767,348Z" transform="translate(-64 -348)"/>
      </g>
    </g>
    <g id="Group_733" data-name="Group 733" transform="translate(1.533 22.017)">
      <g id="Group_732" data-name="Group 732">
        <path id="Path_596" data-name="Path 596" d="M32.767,380h-.383a.383.383,0,0,0-.383.383v.383a.383.383,0,0,0,.383.383h.383a.383.383,0,0,0,.383-.383v-.383A.383.383,0,0,0,32.767,380Z" transform="translate(-32 -380)"/>
      </g>
    </g>
    <g id="Group_735" data-name="Group 735" transform="translate(3.067 22.017)">
      <g id="Group_734" data-name="Group 734">
        <path id="Path_597" data-name="Path 597" d="M64.767,380h-.383a.383.383,0,0,0-.383.383v.383a.383.383,0,0,0,.383.383h.383a.383.383,0,0,0,.383-.383v-.383A.383.383,0,0,0,64.767,380Z" transform="translate(-64 -380)"/>
      </g>
    </g>
    <g id="Group_737" data-name="Group 737" transform="translate(1.533 23.55)">
      <g id="Group_736" data-name="Group 736">
        <path id="Path_598" data-name="Path 598" d="M32.767,412h-.383a.383.383,0,0,0-.383.383v.383a.383.383,0,0,0,.383.383h.383a.383.383,0,0,0,.383-.383v-.383A.383.383,0,0,0,32.767,412Z" transform="translate(-32 -412)"/>
      </g>
    </g>
    <g id="Group_739" data-name="Group 739" transform="translate(3.067 23.55)">
      <g id="Group_738" data-name="Group 738">
        <path id="Path_599" data-name="Path 599" d="M64.767,412h-.383a.383.383,0,0,0-.383.383v.383a.383.383,0,0,0,.383.383h.383a.383.383,0,0,0,.383-.383v-.383A.383.383,0,0,0,64.767,412Z" transform="translate(-64 -412)"/>
      </g>
    </g>
    <g id="Group_741" data-name="Group 741" transform="translate(19.167 8.983)">
      <g id="Group_740" data-name="Group 740">
        <path id="Path_600" data-name="Path 600" d="M401.917,108h-1.533a.383.383,0,0,0-.383.383v1.533a.383.383,0,0,0,.383.383h1.533a.383.383,0,0,0,.383-.383v-1.533A.383.383,0,0,0,401.917,108Zm-.383,1.533h-.767v-.767h.767Z" transform="translate(-400 -108)"/>
      </g>
    </g>
    <g id="Group_743" data-name="Group 743" transform="translate(19.167 12.05)">
      <g id="Group_742" data-name="Group 742">
        <path id="Path_601" data-name="Path 601" d="M401.917,172h-1.533a.383.383,0,0,0-.383.383v1.533a.383.383,0,0,0,.383.383h1.533a.383.383,0,0,0,.383-.383v-1.533A.383.383,0,0,0,401.917,172Zm-.383,1.533h-.767v-.767h.767Z" transform="translate(-400 -172)"/>
      </g>
    </g>
    <g id="Group_745" data-name="Group 745" transform="translate(19.167 15.117)">
      <g id="Group_744" data-name="Group 744">
        <path id="Path_602" data-name="Path 602" d="M401.917,236h-1.533a.383.383,0,0,0-.383.383v1.533a.383.383,0,0,0,.383.383h1.533a.383.383,0,0,0,.383-.383v-1.533A.383.383,0,0,0,401.917,236Zm-.383,1.533h-.767v-.767h.767Z" transform="translate(-400 -236)"/>
      </g>
    </g>
    <g id="Group_747" data-name="Group 747" transform="translate(19.167 18.183)">
      <g id="Group_746" data-name="Group 746" transform="translate(0 0)">
        <path id="Path_603" data-name="Path 603" d="M401.917,300h-1.533a.383.383,0,0,0-.383.383v1.533a.383.383,0,0,0,.383.383h1.533a.383.383,0,0,0,.383-.383v-1.533A.383.383,0,0,0,401.917,300Zm-.383,1.533h-.767v-.767h.767Z" transform="translate(-400 -300)"/>
      </g>
    </g>
    <g id="Group_749" data-name="Group 749" transform="translate(19.167 21.25)">
      <g id="Group_748" data-name="Group 748">
        <path id="Path_604" data-name="Path 604" d="M401.917,364h-1.533a.383.383,0,0,0-.383.383v1.533a.383.383,0,0,0,.383.383h1.533a.383.383,0,0,0,.383-.383v-1.533A.383.383,0,0,0,401.917,364Zm-.383,1.533h-.767v-.767h.767Z" transform="translate(-400 -364)"/>
      </g>
    </g>
  </g>
</svg>
