<svg id="money-bag" xmlns="http://www.w3.org/2000/svg" width="18" height="18" viewBox="0 0 18 18">
  <path id="Path_565" data-name="Path 565" d="M152.422,247.428a.528.528,0,0,1-.527-.527.527.527,0,0,0-1.055,0,1.584,1.584,0,0,0,1.06,1.493v.462a.527.527,0,0,0,1.055,0v-.466a1.582,1.582,0,0,0-.533-3.071.527.527,0,1,1,.527-.527.527.527,0,0,0,1.055,0,1.585,1.585,0,0,0-1.049-1.489v-.774a.527.527,0,0,0-1.055,0v.771a1.582,1.582,0,0,0,.522,3.075.527.527,0,0,1,0,1.055Zm0,0" transform="translate(-145.537 -233.492)" fill="#4a4a4a"/>
  <path id="Path_566" data-name="Path 566" d="M2.149,17.139A10.075,10.075,0,0,0,6.891,18a11.645,11.645,0,0,0,4.064-.563A1.579,1.579,0,0,0,12.164,18h4.254A1.581,1.581,0,0,0,17.6,15.363a1.578,1.578,0,0,0,0-2.109,1.578,1.578,0,0,0,0-2.109,1.581,1.581,0,0,0-1.178-2.637H12.164c-.051,0-.1,0-.152.008a7.222,7.222,0,0,0-1.833-1.591,1.58,1.58,0,0,0-.5-2.483l.879-2.7a.527.527,0,0,0-.5-.691H8.382a1.582,1.582,0,0,0-2.983,0H3.727a.527.527,0,0,0-.5.691l.879,2.7a1.58,1.58,0,0,0-.5,2.484A7.522,7.522,0,0,0,0,13.254,4.065,4.065,0,0,0,2.149,17.139Zm14.8-4.94a.528.528,0,0,1-.527.527H12.164a.527.527,0,0,1,0-1.055h4.254A.528.528,0,0,1,16.945,12.2Zm0,2.109a.528.528,0,0,1-.527.527H12.164a.527.527,0,0,1,0-1.055h4.254A.528.528,0,0,1,16.945,14.309Zm-.527,2.637H12.164a.527.527,0,0,1,0-1.055h4.254a.527.527,0,0,1,0,1.055Zm.527-6.855a.528.528,0,0,1-.527.527H12.164a.527.527,0,0,1,0-1.055h4.254A.528.528,0,0,1,16.945,10.09ZM8.985,6.4h-4.2a.527.527,0,0,1,0-1.055H9A.527.527,0,0,1,9,6.4H8.985ZM5.836,2.109a.527.527,0,0,0,.527-.527.527.527,0,0,1,1.055,0V2.637a.527.527,0,0,0,1.055,0V2.109h.855l-.711,2.18H5.164l-.711-2.18ZM4.884,7.453H8.9A5.96,5.96,0,0,1,11.028,8.99a1.578,1.578,0,0,0-.042,2.155,1.578,1.578,0,0,0,0,2.109,1.578,1.578,0,0,0,0,2.109,1.576,1.576,0,0,0-.4,1.055c0,.011,0,.022,0,.032a10.657,10.657,0,0,1-3.692.5,9.137,9.137,0,0,1-4.243-.736,3.009,3.009,0,0,1-1.593-2.955A6.4,6.4,0,0,1,4.884,7.453Zm0,0" fill="#4a4a4a"/>
</svg>
