<svg xmlns="http://www.w3.org/2000/svg" width="20.134" height="17.449" viewBox="0 0 20.134 17.449">
  <g id="photo-camera" opacity="0.36">
    <g id="Group_407" data-name="Group 407" transform="translate(0 0)">
      <path id="Path_384" data-name="Path 384" d="M19.348,40.011a2.587,2.587,0,0,0-1.9-.786H15.1L14.566,37.8a1.948,1.948,0,0,0-.729-.886,1.868,1.868,0,0,0-1.085-.372H7.382a1.868,1.868,0,0,0-1.085.372,1.948,1.948,0,0,0-.729.886l-.535,1.426H2.685a2.587,2.587,0,0,0-1.9.786A2.586,2.586,0,0,0,0,41.909v9.4a2.586,2.586,0,0,0,.786,1.9,2.586,2.586,0,0,0,1.9.787H17.449A2.685,2.685,0,0,0,20.134,51.3v-9.4A2.586,2.586,0,0,0,19.348,40.011Zm-5.962,9.915a4.524,4.524,0,0,1-3.319,1.379,4.524,4.524,0,0,1-3.319-1.379,4.683,4.683,0,0,1,0-6.638,4.524,4.524,0,0,1,3.319-1.379,4.525,4.525,0,0,1,3.319,1.379,4.683,4.683,0,0,1,0,6.638Z" transform="translate(0 -36.54)" fill="#9c9c9c"/>
      <path id="Path_385" data-name="Path 385" d="M194.876,228.4a3.026,3.026,0,1,0,2.134.886A2.909,2.909,0,0,0,194.876,228.4Z" transform="translate(-184.809 -221.356)" fill="#9c9c9c"/>
    </g>
  </g>
</svg>
