<svg id="restaurant-cutlery-circular-symbol-of-a-spoon-and-a-fork-in-a-circle" xmlns="http://www.w3.org/2000/svg" width="23" height="23" viewBox="0 0 23 23">
  <g id="Group_750" data-name="Group 750">
    <path id="Path_605" data-name="Path 605" d="M39.525,29.813A9.692,9.692,0,0,0,35.35,48.255l.3-5.866s-.571-.187-.7-.248c-1.211-.533-2.091-2.1-2.091-4.143,0-2.225,1.725-4.141,3.393-4.157h.006c1.668.016,3.394,1.932,3.394,4.157,0,2.039-.881,3.609-2.09,4.143l-.7.255.339,6.522a9.507,9.507,0,0,0,5.4-.218l.3-5.812a3.116,3.116,0,0,1-1.89-1.31c-.524-.785.4-7.737.4-7.737h.6v6.523h.6V33.842h.656v6.524h.6V33.842h.68v6.524h.6V33.842h.463s.928,6.951.4,7.737a3.125,3.125,0,0,1-1.87,1.307l-.027.01.261,5a9.693,9.693,0,0,0-4.863-18.082Z" transform="translate(-28.024 -28.012)" fill="#414141"/>
    <path id="Path_606" data-name="Path 606" d="M91.56,142.218a2.79,2.79,0,0,1,.084-.278.127.127,0,0,0-.071-.141.116.116,0,0,0-.152.033s-.066.106-.163.262a2.81,2.81,0,0,0-.273.617,5.1,5.1,0,0,0-.187.895,4.269,4.269,0,0,0-.014.519,2.455,2.455,0,0,0,.1.55,3.56,3.56,0,0,0,.867,1.583,2.984,2.984,0,0,0,.464.376l.044.031c.027.018.052.034.078.049a.889.889,0,0,0,.187.077.112.112,0,0,0,.127-.053.114.114,0,0,0-.038-.135,1.213,1.213,0,0,1-.138-.151,2.74,2.74,0,0,1-.178-.244c-.047-.069-.1-.147-.155-.223a7.849,7.849,0,0,1-.612-1.506,2,2,0,0,1-.086-.415,4.235,4.235,0,0,1-.024-.443,5.856,5.856,0,0,1,.036-.823A3.212,3.212,0,0,1,91.56,142.218Z" transform="translate(-85.297 -133.218)" fill="#414141"/>
    <path id="Path_607" data-name="Path 607" d="M11.5,0A11.5,11.5,0,1,0,23,11.5,11.514,11.514,0,0,0,11.5,0Zm0,22.142A10.643,10.643,0,1,1,22.144,11.5,10.655,10.655,0,0,1,11.5,22.142Z" fill="#414141"/>
  </g>
</svg>
