<svg xmlns="http://www.w3.org/2000/svg" width="24.403" height="24.404" viewBox="0 0 24.403 24.404">
  <g id="sunset" transform="translate(-0.178 0.001)">
    <path id="Path_422" data-name="Path 422" d="M329.4,275.223a4.067,4.067,0,1,0,4.067-4.067A4.067,4.067,0,0,0,329.4,275.223Zm4.067-3.254a3.254,3.254,0,1,1-3.254,3.254A3.254,3.254,0,0,1,333.466,271.97Zm0,0" transform="translate(-315.392 -259.767)" fill="#ff4827"/>
    <path id="Path_423" data-name="Path 423" d="M370.9,561.637h4.648v.813H370.9Zm0,0" transform="translate(-355.149 -538.047)" fill="#ff4827"/>
    <path id="Path_424" data-name="Path 424" d="M329.4,522.9h8.134v.813H329.4Zm0,0" transform="translate(-315.392 -500.939)" fill="#ff4827"/>
    <path id="Path_425" data-name="Path 425" d="M116.379,522.9h.813v.813h-.813Zm0,0" transform="translate(-111.32 -500.939)" fill="#ff4827"/>
    <path id="Path_426" data-name="Path 426" d="M58.285,542.27H59.1v.813h-.813Zm0,0" transform="translate(-55.667 -519.493)" fill="#ff4827"/>
    <path id="Path_427" data-name="Path 427" d="M5.1,19.675A30.8,30.8,0,0,0,9.012,7.636l3.782,3.76a.406.406,0,0,0,.285.118.384.384,0,0,0,.066-.005.406.406,0,0,0,.3-.22A3.97,3.97,0,0,0,12.7,6.7l-.333-.333h2.861a.407.407,0,0,0,.386-.536A3.971,3.971,0,0,0,11.84,3.114h-.529l2.031-2.043a.407.407,0,0,0-.106-.651,3.972,3.972,0,0,0-4.591.745l-.388.388a3.978,3.978,0,0,0-.353.407,3.908,3.908,0,0,0-.349-.407l-.388-.388A3.97,3.97,0,0,0,2.578.421a.407.407,0,0,0-.106.651L4.5,3.114H3.971A3.971,3.971,0,0,0,.2,5.832a.407.407,0,0,0,.386.536H3.443L3.11,6.7a3.971,3.971,0,0,0-.745,4.589.407.407,0,0,0,.3.22.386.386,0,0,0,.066.005.406.406,0,0,0,.287-.118l3.522-3.5A22.044,22.044,0,0,1,2.286,18.643,15.176,15.176,0,0,0,.626,18.3l-.254-.026-.081.81.237.023c.407.058.811.14,1.213.233-.081.1-.163.206-.247.306l.624.522A22.9,22.9,0,0,0,7.438,7l.468-.465.35.348A29.736,29.736,0,0,1,3.1,21.321l.666.466c.32-.456.625-.93.92-1.413A14.425,14.425,0,0,1,9.606,24.23l.629-.515a15.191,15.191,0,0,0-2.7-2.565H24.581v-.813H6.33C5.931,20.1,5.519,19.877,5.1,19.675Zm7.831-9.292-4.3-4.272a3.137,3.137,0,0,1,3.1.777l.388.389A3.158,3.158,0,0,1,12.93,10.383Zm1.676-4.828H11.238a3.966,3.966,0,0,0-2.519-.3A3.154,3.154,0,0,1,11.29,3.928h.549A3.158,3.158,0,0,1,14.606,5.555ZM8.83,2.129l.389-.388a3.16,3.16,0,0,1,3.109-.8L9.917,3.362A3.967,3.967,0,0,0,8,4.868a3.078,3.078,0,0,1,.835-2.74ZM6.59,1.741l.388.388a3.087,3.087,0,0,1,.468.616A3.87,3.87,0,0,0,7.135,4.1a3.967,3.967,0,0,0-1.24-.735L3.483.936a3.159,3.159,0,0,1,3.108.8ZM3.969,3.928h.549A3.155,3.155,0,0,1,7.092,5.254a3.968,3.968,0,0,0-2.518.3H1.205A3.158,3.158,0,0,1,3.971,3.928ZM2.881,10.383a3.158,3.158,0,0,1,.8-3.107l.388-.389A3.109,3.109,0,0,1,6.279,5.98a3.217,3.217,0,0,1,.9.129Zm0,0" transform="translate(0 0)" fill="#ff4827"/>
  </g>
</svg>
