<svg xmlns="http://www.w3.org/2000/svg" width="23.084" height="14.96" viewBox="0 0 23.084 14.96">
  <g id="visa-pay-logo" transform="translate(0 -9.939)">
    <g id="Group_600" data-name="Group 600" transform="translate(0 9.939)">
      <g id="Group_599" data-name="Group 599" transform="translate(0 0)">
        <path id="Path_448" data-name="Path 448" d="M22.49,9.939H.594A.594.594,0,0,0,0,10.533V24.3a.594.594,0,0,0,.594.594h21.9a.594.594,0,0,0,.594-.594V10.533A.594.594,0,0,0,22.49,9.939ZM1.787,14.46H4.251a.639.639,0,0,1,.692.474l.536,2.577a5.057,5.057,0,0,0-3.712-2.934Zm2.981,5.877L3.345,15.475a6.241,6.241,0,0,1,2.2,2.417l.166.6,1.556-3.976H8.953l-2.5,5.82Zm5.422,0H8.6l.994-5.831h1.59Zm2.765.087a5.03,5.03,0,0,1-1.771-.311l.224-1.305.2.093a3.33,3.33,0,0,0,1.5.306c.457,0,.946-.179.95-.569,0-.255-.2-.438-.824-.724-.6-.279-1.4-.746-1.392-1.584.009-1.133,1.115-1.924,2.686-1.924a4.1,4.1,0,0,1,1.424.245l-.215,1.264-.143-.067a2.932,2.932,0,0,0-1.189-.223c-.622,0-.911.259-.911.5,0,.273.337.453.893.723.917.416,1.341.921,1.335,1.584C15.711,19.647,14.627,20.429,12.956,20.429Zm6.887-.085s-.145-.67-.193-.874l-2.035,0c-.062.157-.334.876-.334.876H15.611L17.971,15a.791.791,0,0,1,.833-.484h1.228l1.286,5.827Z" transform="translate(0 -9.939)" fill="#414141"/>
      </g>
    </g>
    <g id="Group_602" data-name="Group 602" transform="translate(18.071 16.088)">
      <g id="Group_601" data-name="Group 601">
        <path id="Path_449" data-name="Path 449" d="M45.165,25.488l-.107-.5c-.081.219-.22.572-.211.557,0,0-.5,1.294-.633,1.63h1.32Z" transform="translate(-44.214 -24.985)" fill="#414141"/>
      </g>
    </g>
  </g>
</svg>
