<svg xmlns="http://www.w3.org/2000/svg" width="20.022" height="17.665" viewBox="0 0 20.022 17.665">
  <g id="Group_485" data-name="Group 485" opacity="0.637">
    <rect id="Rectangle_583" data-name="Rectangle 583" width="13.143" height="1.049" transform="translate(6.879 0)" fill="#231f20"/>
    <rect id="Rectangle_584" data-name="Rectangle 584" width="9.652" height="1.049" transform="translate(6.879 4.799)" fill="#231f20"/>
    <rect id="Rectangle_585" data-name="Rectangle 585" width="5.753" height="1.049" transform="translate(6.879 9.598)" fill="#231f20"/>
    <path id="Path_466" data-name="Path 466" d="M142.332,48a.423.423,0,0,0-.595-.6l-3.046,3.046v-15.8a.419.419,0,0,0-.421-.421.423.423,0,0,0-.427.421v15.8L134.8,47.4a.431.431,0,0,0-.6,0,.421.421,0,0,0,0,.6l3.767,3.767a.414.414,0,0,0,.595,0Z" transform="translate(-134.077 -34.224)" fill="#1e201d"/>
  </g>
</svg>
