<svg xmlns="http://www.w3.org/2000/svg" width="345.806" height="283.133" viewBox="0 0 345.806 283.133">
  <g id="Group_457" data-name="Group 457" transform="translate(-447 -370)">
    <path id="Path_491" data-name="Path 491" d="M4.26,272.977c18.437,2.371,37.033,2.726,55.586,3.436,8.505.327,16.845-.066,24.7,2.985,7.353,2.857,13.224,8.592,20.812,11.05,5.888,1.908,12.239,1.841,18.389,1.141a93.285,93.285,0,0,0,81.623-107.121c-2.2-14.363-8.81-27.757-10.395-42.23-1.675-15.3,4.169-28.638,7.861-43.188a110.817,110.817,0,0,0,3.33-31.118c-.214-6.026-.971-12.2-3.822-17.517C194.6,35.981,175.07,33.258,158.77,34.884a152.566,152.566,0,0,0-58.055,18.039c-14.015,7.739-27.9,19-43.981,22.058C38.6,78.425,24.569,66,8.246,60.327c-36.726-12.755-81.067,12.3-97.257,45.627-19.987,41.14-17.712,108.441,19.7,138.972,20.387,16.639,46.657,24.5,72.746,27.944Z" transform="translate(567.197 348.007)" fill="#ffe5d2"/>
    <g id="Group_612" data-name="Group 612" transform="translate(447 370)">
      <g id="Group_581" data-name="Group 581" transform="translate(51.847 87.184)">
        <g id="Group_579" data-name="Group 579" transform="translate(0 127.24)">
          <path id="Path_397" data-name="Path 397" d="M120.344,327.406l-.933-1.9-25.96,19.835,11.326,18.348L130.619,341.9Z" transform="translate(-93.451 -325.501)" fill="#f97a5d"/>
          <path id="Path_398" data-name="Path 398" d="M94.847,351.486l9.949,17.206.636-.284-8.86-16.087Z" transform="translate(-93.759 -331.226)" fill="#d5d3d3"/>
          <path id="Path_399" data-name="Path 399" d="M120.138,327.46,94.847,346.192a1.13,1.13,0,0,0,.734.649,2.034,2.034,0,0,0,.992.185l26.59-18.2a8.006,8.006,0,0,1-2.089-.772A6.277,6.277,0,0,0,120.138,327.46Z" transform="translate(-93.759 -325.933)" fill="#f4f3f3"/>
          <path id="Path_400" data-name="Path 400" d="M124.166,328.274,96.451,346.786l9,17.059,1.45,2.362,27.717-20.513s-2.92-4.357-4.673-6.987-5.193-8.834-5.381-9.231A9.563,9.563,0,0,1,124.166,328.274Z" transform="translate(-94.112 -326.112)" fill="#f97a5d"/>
        </g>
        <g id="Group_580" data-name="Group 580" transform="translate(247.181)">
          <path id="Path_401" data-name="Path 401" d="M422.706,163.9l.783-1.6,21.8,16.656-9.511,15.407-21.7-18.3Z" transform="translate(-411.274 -162.305)" fill="#6e5395"/>
          <path id="Path_402" data-name="Path 402" d="M450.424,184.125l-8.355,14.448-.534-.238,7.44-13.509Z" transform="translate(-417.324 -167.113)" fill="#d5d3d3"/>
          <path id="Path_403" data-name="Path 403" d="M424.978,163.949l21.238,15.731a.948.948,0,0,1-.616.546,1.708,1.708,0,0,1-.833.155L422.439,165.1a6.72,6.72,0,0,0,1.754-.649A5.343,5.343,0,0,1,424.978,163.949Z" transform="translate(-413.116 -162.667)" fill="#f4f3f3"/>
          <path id="Path_404" data-name="Path 404" d="M419.259,164.633l23.273,15.545L434.974,194.5l-1.218,1.984-23.274-17.226s2.451-3.658,3.923-5.867,4.361-7.419,4.518-7.752A7.965,7.965,0,0,0,419.259,164.633Z" transform="translate(-410.482 -162.818)" fill="#6e5395"/>
        </g>
      </g>
      <g id="Group_611" data-name="Group 611" transform="translate(0 0)">
        <g id="Group_590" data-name="Group 590" transform="translate(0 16.597)">
          <path id="Path_405" data-name="Path 405" d="M87.894,125.906a2.5,2.5,0,0,0-.823,3.038c.823,1.9,4.432,7.533,9.306,7.343.2-.008-6.141-10.381-6.141-10.381Z" transform="translate(-40.148 -83.699)" fill="#f97a5d"/>
          <g id="Group_584" data-name="Group 584">
            <g id="Group_582" data-name="Group 582" transform="translate(16.73 141.483)">
              <path id="Path_406" data-name="Path 406" d="M71.97,257.824s-6.1-5.446-8.047-4.471c-2.384,1.192-16.032,14.563-15.5,20.863.218,2.579,3.222.369,8.574-5.182a11.971,11.971,0,0,1,12.093-3.172Z" transform="translate(-48.41 -253.236)" fill="#6e5395"/>
            </g>
            <g id="Group_583" data-name="Group 583" transform="translate(31.331 150.839)">
              <path id="Path_407" data-name="Path 407" d="M90.906,269.65l-7.359-4.414S64.473,283.118,67.454,285.5c2.26,1.808,3.588.186,8.941-5.365s12.133-2.359,12.133-2.359Z" transform="translate(-67.137 -265.236)" fill="#6e5395"/>
            </g>
            <path id="Path_408" data-name="Path 408" d="M147.009,195.443l1.38,19.595-30.632-7.98Z" transform="translate(-46.959 -99.019)" fill="#e0a584"/>
            <path id="Path_409" data-name="Path 409" d="M116.642,211.2s26.794,1.688,30.362.5c0,0,5.237,51.441-4.081,56.99s-30.227-2.577-30.227-2.577l5.646-11.1,12.172-.794V234.4l-.872.2Z" transform="translate(-45.844 -102.492)" fill="#1d262d"/>
            <path id="Path_410" data-name="Path 410" d="M73.268,246.292s-6.74,2.776-4.559,9.516c0,0,23.005,18.039,34.2,13.876,6.272-2.332,13.009-20.126,17.722-35.327L137.217,211.7s-7.822.391-10.432.381c-4.987-.019-19.93-.879-19.93-.879s-7.8,40.838-10.586,41.828S73.268,246.292,73.268,246.292Z" transform="translate(-36.057 -102.492)" fill="#2c373f"/>
            <path id="Path_411" data-name="Path 411" d="M125.766,129.264S141.824,114.2,144.6,110.232s8.723-17.246,16.057-22.8L157.088,79.9s2.181-1.189,3.568,1.982c0,0,5.154-10.308,6.343-10.11s-2.378,7.929-2.378,7.929,4.957-7.136,6.344-6.938-3.569,8.023-3.569,8.023,5.55-6.437,6.344-5.644-4.361,5.644-4.361,5.644,5.55-3.187,6.145-2.136-5.55,3.827-5.55,3.827-.595,4.56-4.361,6.541c0,0-7.458,20.148-14.2,26.69l-21.652,22.5Z" transform="translate(-48.724 -71.771)" fill="#ffc5b1"/>
            <path id="Path_412" data-name="Path 412" d="M84.826,155.526S69.611,171.442,65.62,174.18s-17.327,8.562-22.946,15.844l-7.5-3.64s-1.209,2.17,1.95,3.586c0,0-10.356,5.058-10.169,6.25s7.951-2.3,7.951-2.3-7.183,4.89-7,6.278,8.056-3.493,8.056-3.493-6.488,5.49-5.7,6.29,5.685-4.308,5.685-4.308-3.238,5.521-2.192,6.125,3.877-5.515,3.877-5.515,4.564-.55,6.583-4.3c0,0,19.084-7.593,25.689-14.272l23.749-16.828Z" transform="translate(-26.953 -90.225)" fill="#ffc5b1"/>
            <path id="Path_413" data-name="Path 413" d="M106.321,145.94l-7.7,7.532,1.952,8.493s7.582,18.2,8.728,22.642c1.782,6.9-1.1,17.432-1.1,17.432s12.853-1.067,24.548-1.463,15.52-4.164,15.52-4.164-10.14-33.772-17.14-43.211-9.549-12.394-9.549-12.394l-10.308,2.253Z" transform="translate(-42.744 -86.982)" fill="#fff"/>
            <path id="Path_414" data-name="Path 414" d="M134.138,150.447l8.018-5.123s1.225-5.489-8.445-11.963l-11.34,7.1Z" transform="translate(-47.976 -85.341)" fill="#fff"/>
            <path id="Path_415" data-name="Path 415" d="M96.941,156.243c-4.4.617-12.429,11.758-13.325,11.736,0,0,5.653,9.226,10.132,9.525C93.748,177.5,113.456,153.926,96.941,156.243Z" transform="translate(-39.437 -90.347)" fill="#fff"/>
            <path id="Path_416" data-name="Path 416" d="M113.693,139.925s-6.389-4.773-6.168-6.677c.056-.479.942-1.258,1.172-1.948,1.239-3.716-4.734-13.293-8.4-15.311-2.887-1.588-1.622-1.729-7.7,1.882s-2.614,9.855.1,13.084a11.962,11.962,0,0,0,8.146,4.581l3.758,8.347Z" transform="translate(-40.672 -81.279)" fill="#ffc5b1"/>
            <path id="Path_417" data-name="Path 417" d="M105.73,152.914c-1.208-2.964,1.08-6.7,5.112-8.343s8.28-.576,9.491,2.387-2.85,7.419-5.115,8.343S106.937,155.877,105.73,152.914Z" transform="translate(-44.238 -87.641)" fill="#ffc5b1"/>
          </g>
          <path id="Path_418" data-name="Path 418" d="M93.022,135.483s-2.072-.115-2.3,1.267,3.8,1.382,5.3.345Z" transform="translate(-41 -85.808)" fill="#ffc5b1"/>
          <path id="Path_419" data-name="Path 419" d="M92.607,130.5c-.394-2.5-3.052-4.351-2.921-6.783,1.276.009,2.094-1.569,1.513-2.918-.228-.53-.615-.985-.862-1.507s-.312-1.208.066-1.5a1.248,1.248,0,0,1,.653-.188c1.891-.194,5.128.373,6.867-.271,1.657-.614,3.431-1.808,3.258-3.837-.15-1.766-1.711-3.2-3.143-4.28-.822-.621-3.168-2.243-4.052-2.1-1.352.225-1.679,2.027-1.777,3.537a2.346,2.346,0,0,0-3.161-.024,6.629,6.629,0,0,0-1.569,3.019,6.841,6.841,0,0,1-1.548,3.035c-.756.7-1.952,1.223-1.795,2.405.186,1.41,2.028,1.911,2.879,3.112-.209-.295-.388,1.587-.267,1.907a8.337,8.337,0,0,0,1.926,2.333C90.075,128.006,90.758,129.583,92.607,130.5Z" transform="translate(-39.549 -79.556)" fill="#f97a5d"/>
          <path id="Path_420" data-name="Path 420" d="M108.519,129.789l-4.722,2.442S109.468,136.348,108.519,129.789Z" transform="translate(-43.884 -84.554)" fill="#fff"/>
          <path id="Path_421" data-name="Path 421" d="M100.753,130.909c.257.49-.125,1.2-.854,1.581s-1.529.3-1.786-.192.124-1.2.853-1.581S100.5,130.419,100.753,130.909Z" transform="translate(-42.613 -84.706)" fill="#f4b19f"/>
          <path id="Path_422" data-name="Path 422" d="M109.6,124.868c.258.49-.124,1.2-.853,1.581s-1.529.3-1.787-.191.125-1.2.854-1.582S109.338,124.378,109.6,124.868Z" transform="translate(-44.562 -83.375)" fill="#f4b19f"/>
          <g id="Group_585" data-name="Group 585" transform="translate(58.217 41.119)">
            <path id="Path_423" data-name="Path 423" d="M104.743,128.453c-.022-.027.066-.143.271-.291a5.075,5.075,0,0,0,.785-.584c.249-.264.339-.811-.042-.888-.4-.135-.848.32-1.364.753l-.38.315a.843.843,0,0,1-.62.233,1.4,1.4,0,0,1-.882-.621,4.3,4.3,0,0,1-.733-1.418c-.253-.879-.14-1.447-.079-1.442.085,0,.114.541.436,1.315a4.706,4.706,0,0,0,.758,1.233c.172.209.389.4.543.41.065,0,.115-.019.238-.121l.375-.315c.26-.211.486-.423.783-.621a1.26,1.26,0,0,1,1.071-.193.811.811,0,0,1,.557.883,1.237,1.237,0,0,1-.391.741,3.114,3.114,0,0,1-.956.5C104.889,128.43,104.767,128.483,104.743,128.453Z" transform="translate(-101.621 -124.51)" fill="#f97a5d"/>
          </g>
          <path id="Path_424" data-name="Path 424" d="M104.123,141.08a10.88,10.88,0,0,0,4.647-.989,7.016,7.016,0,0,1-4.149,2.138Z" transform="translate(-43.955 -86.824)" fill="#eda091"/>
          <g id="Group_586" data-name="Group 586" transform="translate(59.641 40.528)">
            <path id="Path_425" data-name="Path 425" d="M105.28,123.973c-.027.149-.448.195-.894.391s-.777.452-.9.369.084-.606.694-.862S105.321,123.833,105.28,123.973Z" transform="translate(-103.448 -123.751)" fill="#2c373f"/>
          </g>
          <g id="Group_587" data-name="Group 587" transform="translate(55.538 42.996)">
            <path id="Path_426" data-name="Path 426" d="M98.219,128.542c-.113-.084.065-.569.5-1.054s1-.661,1.059-.523-.279.45-.664.886S98.342,128.635,98.219,128.542Z" transform="translate(-98.185 -126.918)" fill="#2c373f"/>
          </g>
          <g id="Group_588" data-name="Group 588" transform="translate(53.084 41.061)">
            <path id="Path_427" data-name="Path 427" d="M95.237,127.247c-.244-.182-.435-.955.5-2,.943-1.067,2-.879,2.123-.582s-.215.7-1.042,1.642S95.5,127.445,95.237,127.247Z" transform="translate(-95.037 -124.435)" fill="#f97a5d"/>
          </g>
          <g id="Group_589" data-name="Group 589" transform="translate(58.201 38.049)">
            <path id="Path_428" data-name="Path 428" d="M101.641,122.287c-.135-.253.014-.987,1.228-1.5,1.232-.529,2.054.055,2.042.358s-.467.513-1.548.979S101.786,122.562,101.641,122.287Z" transform="translate(-101.601 -120.573)" fill="#f97a5d"/>
          </g>
        </g>
        <g id="Group_599" data-name="Group 599" transform="translate(225.477)">
          <g id="Group_591" data-name="Group 591" transform="translate(60.371 63.663)">
            <path id="Path_429" data-name="Path 429" d="M425.067,132.149c.08.079-1.229,1.551-3.944,3.153a23.668,23.668,0,0,1-23.552.174c-2.738-1.562-4.068-3.015-3.99-3.1.113-.143,1.6,1.082,4.342,2.425a25.212,25.212,0,0,0,22.838-.168C423.482,133.254,424.952,132.007,425.067,132.149Z" transform="translate(-393.578 -132.138)" fill="#6e5395"/>
          </g>
          <g id="Group_592" data-name="Group 592" transform="translate(34.843 56.413)">
            <path id="Path_430" data-name="Path 430" d="M388.248,127.876c-.074.164-1.523-.438-3.963-.982a42.218,42.218,0,0,0-4.336-.713c-1.65-.182-3.473-.327-5.4-.464s-3.77-.29-5.445-.5a35.22,35.22,0,0,1-4.419-.822c-2.489-.649-3.9-1.418-3.848-1.526.064-.165,1.546.342,4.011.786,1.23.234,2.713.416,4.365.581s3.485.274,5.415.41,3.776.314,5.45.554a30.657,30.657,0,0,1,4.4.959C386.942,126.913,388.3,127.774,388.248,127.876Z" transform="translate(-360.835 -122.839)" fill="#6e5395"/>
          </g>
          <path id="Path_431" data-name="Path 431" d="M355.58,85.967c4.627-.981,9.419-.136,14.085.641s9.509,1.478,14.07.227c8.235-2.26,14.486-10.58,23.025-10.513,3.516.027,6.832,1.529,10.257,2.323,4.254.987,8.686.88,12.995,1.585s8.762,2.436,11.2,6.061c2.889,4.3,2.1,10.37-.936,14.572s-7.887,6.761-12.862,8.212c-3.47,1.011-7.168,1.6-10.171,3.609-3.038,2.035-5.021,5.312-7.852,7.627-7.1,5.807-18.154,4.143-25.49-1.366a36.678,36.678,0,0,0-5.622-4c-8.423-4.122-20.537,1.336-27.791-6.166C343.12,101.158,344.169,88.387,355.58,85.967Z" transform="translate(-322.681 -56.177)" fill="#6e5395"/>
          <g id="Group_594" data-name="Group 594">
            <g id="Group_593" data-name="Group 593">
              <path id="Path_432" data-name="Path 432" d="M355.378,276.882s7.718,16.541,8.62,13.478.6-10.42.119-11.471-3.64-5.69-3.64-5.69Z" transform="translate(-324.79 -99.554)" fill="#f4b19f"/>
              <path id="Path_433" data-name="Path 433" d="M426.489,103.432c.714.915.237-.069,1.046,1.251a8.36,8.36,0,0,0,5.616-2.961s5.335.142,5.272-.811-5.113-.6-5.113-.6,5.345-1.679,5.052-2.518S431.9,99.63,431.9,99.63s6.226-3.866,5.306-4.485S430.3,97.9,430.3,97.9s5.207-4.277,4.426-4.829-8,5.015-8,5.015c.105-2.737-1.86-2.642-1.86-2.642l.081,6.686A11.883,11.883,0,0,1,426.489,103.432Z" transform="translate(-340.1 -59.859)" fill="#ffc5b1"/>
              <path id="Path_434" data-name="Path 434" d="M323.475,63.8c-1.142.21-.256-.187-1.738.265a8.037,8.037,0,0,1-2.111-5.967s-4.081-3.434-3.4-4.106,4.221,2.947,4.221,2.947-2.881-4.8-2.106-5.236,3.616,5.662,3.616,5.662-2.091-7.023-.992-6.877,3.338,6.647,3.338,6.647-1.053-6.653-.106-6.548,2.656,9.062,2.656,9.062c1.739-2.118,3.143-.742,3.143-.742l-4.407,4.847A16.943,16.943,0,0,0,323.475,63.8Z" transform="translate(-316.147 -50.484)" fill="#ffc5b1"/>
              <path id="Path_435" data-name="Path 435" d="M358.8,103.373c-1.476-.242-5.044,2.13-6.83,6a9.613,9.613,0,0,0-.54,7.88c.54,1.655,1.671,1.862,1.923,2.6.319.939-.738,3.9-.738,3.9l4.213,1.7c.274-2.033.584-4.078,2.656-4.961a21.57,21.57,0,0,0,2.335-.958c1.974-1.131,3.027-3.607,3.838-5.633C366.265,112.386,362.5,103.98,358.8,103.373Z" transform="translate(-323.79 -62.133)" fill="#ffc5b1"/>
              <path id="Path_436" data-name="Path 436" d="M346.733,176.262l-7.058-2.833s-20.945,38.842-20.859,49.618S347.584,255.4,347.584,255.4l4.838-4.181s-8.856-15.439-13.589-20.884S346.733,176.262,346.733,176.262Z" transform="translate(-316.735 -77.572)" fill="#f4b19f"/>
              <path id="Path_437" data-name="Path 437" d="M398.326,231.477s15.555-7.38,12.43-8.032-10.436.246-11.443.813-5.376,4.089-5.376,4.089Z" transform="translate(-333.286 -88.542)" fill="#ffc5b1"/>
              <path id="Path_438" data-name="Path 438" d="M358.354,176.63l-10.707,3.9s-10.71,47.1-6.621,54.5,15.569,2.5,31.922-6.423l13.7-7.477-4.571-3.043s-15.939,3.123-20.415,6.237c0,0,2.335-6.619,5.451-15.961S372.371,189.477,358.354,176.63Z" transform="translate(-321.423 -78.277)" fill="#ffc5b1"/>
              <path id="Path_439" data-name="Path 439" d="M346.611,133.946c0-3.13,1.007-5.394,4.137-5.394s7.455,1.1,7.455,4.228-2.466,8.214-5.6,8.214S346.611,137.077,346.611,133.946Z" transform="translate(-322.859 -67.684)" fill="#ffc5b1"/>
              <path id="Path_440" data-name="Path 440" d="M343.73,114.441S334,103.908,332.051,93.591,326.8,66.535,326.8,66.535L323.1,67.6s-1.753,22.878,0,26.382,10.311,26.83,12.918,32.956Z" transform="translate(-317.506 -54.021)" fill="#ffc5b1"/>
              <path id="Path_441" data-name="Path 441" d="M363.191,130.986s.748-3.276,13.055-7.729,35.523-18.884,35.523-18.884l2.317,2.65s-12.615,14.571-19.954,17.128S371.2,136.784,369.6,137.591C367.175,138.81,367.206,140.346,363.191,130.986Z" transform="translate(-326.512 -62.357)" fill="#ffc5b1"/>
              <path id="Path_442" data-name="Path 442" d="M346.987,127.978s-9.888,3.2-9.888,18.249c0,0,.006,20.607,2.337,24.355a20.843,20.843,0,0,0,8.512,0c4.952-1.018,9.746-4.672,9.746-4.672l7.778-23.35-.931-10.94-10.576-2.043s3.034,14.178-7.942,8.083c-2.133-1.184,3.138-9.228,3.138-9.228Z" transform="translate(-320.763 -67.558)" fill="#2c373f"/>
              <path id="Path_443" data-name="Path 443" d="M337.673,138.44,332.8,128.289s.7-6.157,9.643-8.364a16.269,16.269,0,0,0,1.9,4.29,14.023,14.023,0,0,0,3.878,2.447Z" transform="translate(-319.816 -65.784)" fill="#2c373f"/>
              <path id="Path_444" data-name="Path 444" d="M361.916,144.554l15.493-3.176s2.694-5.581-3.693-12.22c0,0-12.085.73-13.649.86-1.54.129-.483,1.314-.483,1.314Z" transform="translate(-325.639 -67.818)" fill="#2c373f"/>
            </g>
            <path id="Path_445" data-name="Path 445" d="M335.239,175.258s-14.654,27.093-17.075,31.934c0,0,43.232,19.859,60.782-4.045,0,0-9.983-21.129-25.416-29.173h0l-6.658-1.993L335.5,175.128" transform="translate(-316.591 -77.253)" fill="#2c373f"/>
          </g>
          <path id="Path_446" data-name="Path 446" d="M368.831,116.291s1.669-1.669,2.7-.514S367.8,118.6,367.8,118.6Z" transform="translate(-327.528 -64.78)" fill="#ffc5b1"/>
          <g id="Group_595" data-name="Group 595" transform="translate(25.269 26.757)">
            <path id="Path_447" data-name="Path 447" d="M395.124,86.789a5.587,5.587,0,0,1-1.859.629,25.633,25.633,0,0,1-5.314.61,52.642,52.642,0,0,1-7.9-.555c-2.946-.391-6.147-.964-9.514-1.332a36.293,36.293,0,0,0-9.457.037,21.281,21.281,0,0,0-7.237,2.488,16.126,16.126,0,0,0-4.022,3.257c-.815.928-1.18,1.52-1.263,1.47a4.88,4.88,0,0,1,.937-1.731,14.35,14.35,0,0,1,3.955-3.643,20.778,20.778,0,0,1,7.466-2.815,34.937,34.937,0,0,1,9.735-.129c3.424.373,6.628.98,9.54,1.42a61.96,61.96,0,0,0,7.759.774C392.395,87.394,395.083,86.606,395.124,86.789Z" transform="translate(-348.556 -84.802)" fill="#6e5395"/>
          </g>
          <g id="Group_596" data-name="Group 596" transform="translate(30.708 46.402)">
            <path id="Path_448" data-name="Path 448" d="M357.627,114.16c0,.065-.481.111-1.206-.129a1.622,1.622,0,0,1-.589-.327.948.948,0,0,1-.243-.355.8.8,0,0,1,.005-.607c.023-.035.022-.119.068-.12l.14,0a1,1,0,0,1,.3.037,2.432,2.432,0,0,0,.39.04,3.062,3.062,0,0,0,.735-.074,2.981,2.981,0,0,0,2-1.557c.319-.611.347-1.07.432-1.065.06-.007.179.481-.086,1.218a3.055,3.055,0,0,1-.743,1.138,3.1,3.1,0,0,1-1.482.79,3.163,3.163,0,0,1-1.25.032c-.051-.009-.045-.021-.055-.014a.035.035,0,0,0-.009.03.516.516,0,0,0,.113.2,1.355,1.355,0,0,0,.419.291C357.194,113.988,357.639,114.08,357.627,114.16Z" transform="translate(-355.532 -109.999)" fill="#f97a5d"/>
          </g>
          <path id="Path_449" data-name="Path 449" d="M353.761,115.567l5.707,2.249S354.453,121.274,353.761,115.567Z" transform="translate(-324.434 -64.824)" fill="#fff"/>
          <path id="Path_450" data-name="Path 450" d="M363.6,116.55c-.2.384-.831.452-1.4.15s-.873-.858-.671-1.243.832-.452,1.4-.15S363.805,116.165,363.6,116.55Z" transform="translate(-326.131 -64.725)" fill="#f4b19f"/>
          <path id="Path_451" data-name="Path 451" d="M355.417,112.248c-.173.4-.794.515-1.389.257s-.936-.789-.763-1.188.794-.515,1.389-.257S355.589,111.849,355.417,112.248Z" transform="translate(-324.315 -63.8)" fill="#f4b19f"/>
          <path id="Path_452" data-name="Path 452" d="M353.326,123.6s2,1.676,4.088,1.135c0,0-.72,1.08-3.49.684A1.973,1.973,0,0,0,353.326,123.6Z" transform="translate(-324.338 -66.592)" fill="#eda091"/>
          <path id="Path_453" data-name="Path 453" d="M363.249,112.229a.452.452,0,1,1-.452-.451A.452.452,0,0,1,363.249,112.229Z" transform="translate(-326.325 -63.989)" fill="#2c373f"/>
          <circle id="Ellipse_201" data-name="Ellipse 201" cx="0.452" cy="0.452" r="0.452" transform="translate(32.32 46.456)" fill="#2c373f"/>
          <g id="Group_597" data-name="Group 597" transform="translate(36.754 45.814)">
            <path id="Path_454" data-name="Path 454" d="M364.909,110.467c-.14.058-.409-.267-.818-.532s-.805-.4-.8-.552.553-.262,1.1.107S365.049,110.424,364.909,110.467Z" transform="translate(-363.287 -109.244)" fill="#6e5395"/>
          </g>
          <g id="Group_598" data-name="Group 598" transform="translate(31.855 44.54)">
            <path id="Path_455" data-name="Path 455" d="M357,107.913c-.009-.141.476-.32,1.127-.3s1.151.335,1.083.469-.523.077-1.1.066S357.013,108.067,357,107.913Z" transform="translate(-357.004 -107.61)" fill="#6e5395"/>
          </g>
          <path id="Path_456" data-name="Path 456" d="M359.618,284.119s2.374,8.426,4.825,7.737.608-12.45.608-12.45L362.6,275.54S364.9,295.226,359.618,284.119Z" transform="translate(-325.725 -100.07)" fill="#2c373f"/>
          <path id="Path_457" data-name="Path 457" d="M398.014,225.815a7.62,7.62,0,0,1,3.819-2.2c2.093-.314,9.574-1.2,10.673-.21s-6.064,4.327-6.064,4.327,2.5-1.59,1.46-2.182C406.071,224.506,398.014,225.815,398.014,225.815Z" transform="translate(-334.184 -88.483)" fill="#2c373f"/>
          <path id="Path_458" data-name="Path 458" d="M394.207,229.337l2.342,4.755,1.278-.71L394.7,228.7Z" transform="translate(-333.345 -89.749)" fill="#2c373f"/>
          <path id="Path_459" data-name="Path 459" d="M358.991,270.755l-5.749,5.181,1.7,1.42,4.826-5.252Z" transform="translate(-324.32 -99.015)" fill="#2c373f"/>
        </g>
        <g id="Group_610" data-name="Group 610" transform="translate(112.338 51.389)">
          <path id="Path_460" data-name="Path 460" d="M200.966,190.253c-1.634-4.057-2.263-8.574-4.7-12.205-3.511-5.225-10.253-7.818-13.1-13.431a17.329,17.329,0,0,1-1.6-7.784c-.023-5.29,1.56-10.913,5.646-14.274,4.694-3.862,11.739-3.808,17.236-1.213s9.7,7.3,13.268,12.224,6.7,10.2,10.856,14.632c3.084,3.287,6.741,6.121,9.064,9.984,6.368,10.586-.185,23.982-11.426,27.8C216.326,209.345,204.384,198.736,200.966,190.253Z" transform="translate(-173.354 -121.488)" fill="#2c373f"/>
          <g id="Group_604" data-name="Group 604" transform="translate(0.193 22.636)">
            <g id="Group_600" data-name="Group 600" transform="translate(1.34)">
              <path id="Path_461" data-name="Path 461" d="M185.01,299.756c.978.8-.089.247,1.333,1.173-.317,3.553-3.6,5.791-3.6,5.791s-.14,5.657-1.194,5.541-.38-5.447-.38-5.447-2.164,5.571-3.079,5.216,2.4-6.747,2.4-6.747-4.642,6.389-5.28,5.383,3.447-7.173,3.447-7.173-5.043,5.288-5.613,4.432,6.019-8.208,6.019-8.208c-3.049-.034-2.833-2.108-2.833-2.108l7.427.44A12.688,12.688,0,0,0,185.01,299.756Z" transform="translate(-173.002 -178.957)" fill="#ffc5b1"/>
              <path id="Path_462" data-name="Path 462" d="M277.205,159.545c1.271.222.285-.2,1.934.281a8.255,8.255,0,0,0,2.348-6.328s4.542-3.642,3.789-4.354-4.7,3.125-4.7,3.125,3.207-5.094,2.344-5.552-4.025,6-4.025,6,2.327-7.448,1.1-7.292-3.716,7.048-3.716,7.048,1.173-7.055.118-6.944-2.763,9.354-2.763,9.354c-2.487-2.024-4.228-.728-4.228-.728l5.444,5.338A19.675,19.675,0,0,1,277.205,159.545Z" transform="translate(-194.244 -145.427)" fill="#ffc5b1"/>
              <path id="Path_463" data-name="Path 463" d="M237.487,203.15c2.3-.359,9.305,4.182,7.522,13.4a33.494,33.494,0,0,1-1.412,3.183c-.319.893,2.16,4.16,2.16,4.16l-6.4,2.044c-.274-1.933.186-4.758-1.882-5.6a22.082,22.082,0,0,1-2.33-.911c-1.971-1.076-3.023-3.43-3.832-5.357a11.6,11.6,0,0,1-1.047-4.55C230.31,205.592,233.793,203.727,237.487,203.15Z" transform="translate(-185.619 -158.141)" fill="#ffc5b1"/>
              <path id="Path_464" data-name="Path 464" d="M252.4,234.251c0-3.319-1.053-4.586-4.536-4.586s-8.082,1.267-8.082,4.586,2.46,7.474,5.945,7.474S252.4,237.571,252.4,234.251Z" transform="translate(-187.715 -163.987)" fill="#ffc5b1"/>
              <path id="Path_465" data-name="Path 465" d="M252.434,213.247s10.831-11.169,13-22.108,5.849-28.691,5.849-28.691l4.117,1.129s1.951,24.26,0,27.975-13,29.518-12.783,36.122Z" transform="translate(-190.503 -149.177)" fill="#ffc5b1"/>
              <path id="Path_466" data-name="Path 466" d="M218.546,234.537s-3.683.619-9.316,13.417-22.965,36.623-22.965,36.623l2.818,2.594s16.9-12.589,20.148-20.226,7.366-17.133,9.316-16.72S228.728,239.284,218.546,234.537Z" transform="translate(-175.924 -165.06)" fill="#ffc5b1"/>
              <path id="Path_467" data-name="Path 467" d="M261.662,241.854l5.044-13.921s-.777-6.53-10.733-8.87l-5.639,8.126Z" transform="translate(-190.04 -161.651)" fill="#f97a5d"/>
              <path id="Path_468" data-name="Path 468" d="M226.781,233.167s-5.95.5-10.774,11.095c0,0,5.3,7.323,9.185,7.57C225.192,251.832,239.6,239.513,226.781,233.167Z" transform="translate(-182.477 -164.758)" fill="#f97a5d"/>
            </g>
            <g id="Group_601" data-name="Group 601" transform="translate(51.752 107.642)">
              <path id="Path_469" data-name="Path 469" d="M247.9,393.191s-8.59,17.54-9.594,14.292-.671-11.05-.133-12.164,4.051-6.034,4.051-6.034Z" transform="translate(-237.661 -306.797)" fill="#ffc5b1"/>
              <path id="Path_470" data-name="Path 470" d="M249.848,286.49l7.854-3s23.312,41.189,23.216,52.616S248.9,370.41,248.9,370.41l-5.384-4.434s15.13-22.246,20.4-28.018c2.635-2.887-16.226-17.035-19.083-30.648S249.848,286.49,249.848,286.49Z" transform="translate(-238.951 -283.487)" fill="#5d4484"/>
            </g>
            <g id="Group_603" data-name="Group 603" transform="translate(0 102.548)">
              <g id="Group_602" data-name="Group 602" transform="translate(0 9.213)">
                <path id="Path_471" data-name="Path 471" d="M186.7,380.828s-16.068,11.844-15.4,8.519,4.715-10.116,5.729-10.87,6.5-3.6,6.5-3.6Z" transform="translate(-171.284 -307.743)" fill="#ffc5b1"/>
                <path id="Path_472" data-name="Path 472" d="M216.023,302.24l23.241-13.469s.923,46.787-4.656,56.9S189.653,362.2,189.653,362.2L187,355.909s24.292-14.474,31.751-17.307S216.023,302.24,216.023,302.24Z" transform="translate(-174.746 -288.771)" fill="#6e5395"/>
              </g>
              <path id="Path_473" data-name="Path 473" d="M237.949,276.954s-17.112,6.06-13.842,22.682,8.724,19.739,8.724,19.739l9.814-16.1,9.853-21.088-9.853-1.249Z" transform="translate(-182.831 -276.954)" fill="#6e5395"/>
            </g>
            <path id="Path_474" data-name="Path 474" d="M246.9,227.6a27.11,27.11,0,0,1,12.6,23.014s-1.6,18.189-4.194,22.164a24.307,24.307,0,0,1-9.474,0c-5.512-1.079-10.847-4.953-10.847-4.953l-4.305-22.269-3.35-13,1.816-.6,9.476-1.04s-1.362,14.154,9.218,7.125c2.228-1.48-2.773-8.86-2.773-8.86Z" transform="translate(-183.633 -163.532)" fill="#f97a5d"/>
          </g>
          <path id="Path_475" data-name="Path 475" d="M262.324,142.811,288.74,158.22,303.6,130.153l-24.765-13.758Z" transform="translate(-191.149 -116.395)" fill="#fff"/>
          <path id="Path_476" data-name="Path 476" d="M305.5,311.59l18.893-11.7L308.789,272.65l-17.271,11.2Z" transform="translate(-197.581 -150.822)" fill="#fff"/>
          <g id="Group_605" data-name="Group 605" transform="translate(14.898 44.672)">
            <path id="Path_477" data-name="Path 477" d="M190.15,173.693a7.28,7.28,0,0,1,1.555,1.565,32.085,32.085,0,0,1,3.429,4.945,35.983,35.983,0,0,1,3.4,8.268c.923,3.231,1.542,6.862,2.961,10.359a23.026,23.026,0,0,0,2.692,4.758,25.768,25.768,0,0,0,3.486,3.735,24.807,24.807,0,0,0,7.456,4.39,24.02,24.02,0,0,0,5.72,1.365,11.731,11.731,0,0,1,2.174.267,6.982,6.982,0,0,1-2.2.149,20.6,20.6,0,0,1-5.94-1.066,24.25,24.25,0,0,1-7.845-4.351,25.753,25.753,0,0,1-3.686-3.857,23.345,23.345,0,0,1-2.845-4.983c-1.478-3.656-2.063-7.319-2.922-10.506a38.421,38.421,0,0,0-3.116-8.165,42.363,42.363,0,0,0-3.093-5.051A10.915,10.915,0,0,1,190.15,173.693Z" transform="translate(-190.144 -173.691)" fill="#2c373f"/>
          </g>
          <g id="Group_606" data-name="Group 606" transform="translate(47.303 26.647)">
            <path id="Path_478" data-name="Path 478" d="M231.761,150.572c.193-.03.382,2.571,1.838,6.417a28.928,28.928,0,0,0,3.359,6.329,30.768,30.768,0,0,0,2.68,3.282c1,1.092,2.1,2.2,3.13,3.442a48.976,48.976,0,0,1,4.839,7.612,31.031,31.031,0,0,1,2.933,6.771,12.423,12.423,0,0,1,.417,4.984,4.134,4.134,0,0,1-.527,1.756,11.024,11.024,0,0,1,.112-1.792,13.838,13.838,0,0,0-.728-4.733,33.982,33.982,0,0,0-3.067-6.5,53.958,53.958,0,0,0-4.8-7.411c-.993-1.2-2.071-2.3-3.08-3.418a29.741,29.741,0,0,1-2.717-3.431,27,27,0,0,1-3.259-6.634,23.988,23.988,0,0,1-1.088-4.849A5.046,5.046,0,0,1,231.761,150.572Z" transform="translate(-231.706 -150.572)" fill="#2c373f"/>
          </g>
          <g id="Group_607" data-name="Group 607" transform="translate(52.294 73.752)">
            <path id="Path_479" data-name="Path 479" d="M241.269,214.9c-.01-.075.42-.143.826-.621a.731.731,0,0,0,.187-.364.585.585,0,0,0-.193-.376.552.552,0,0,0-.449-.148c-.19.014-.422.108-.724.154a1.92,1.92,0,0,1-1.52-.589,5.448,5.448,0,0,1-.816-.932c-.4-.584-.518-1.006-.458-1.036s.309.311.755.8a7.845,7.845,0,0,0,.837.792,1.543,1.543,0,0,0,1.128.435c.212-.027.458-.126.76-.147a1.046,1.046,0,0,1,.833.321.99.99,0,0,1,.288.769,1.035,1.035,0,0,1-.357.585C241.785,215.057,241.25,214.975,241.269,214.9Z" transform="translate(-238.108 -210.988)" fill="#f97a5d"/>
          </g>
          <path id="Path_480" data-name="Path 480" d="M244.733,216.575l-5.073,1.845S243.965,222.186,244.733,216.575Z" transform="translate(-186.156 -138.467)" fill="#fff"/>
          <path id="Path_481" data-name="Path 481" d="M238.406,216.076c.2.385-.1.942-.671,1.243s-1.2.235-1.4-.15.1-.941.671-1.243S238.2,215.692,238.406,216.076Z" transform="translate(-185.408 -138.283)" fill="#f4b19f"/>
          <path id="Path_482" data-name="Path 482" d="M246.1,212.1c.166.4-.185.928-.783,1.175s-1.219.122-1.385-.281.185-.928.784-1.175S245.934,211.7,246.1,212.1Z" transform="translate(-187.088 -137.392)" fill="#f4b19f"/>
          <path id="Path_483" data-name="Path 483" d="M239.852,225.327a9.594,9.594,0,0,0,3.861-.2,5.387,5.387,0,0,1-2.809,1.277A3.023,3.023,0,0,0,239.852,225.327Z" transform="translate(-186.198 -140.352)" fill="#eda091"/>
          <path id="Path_484" data-name="Path 484" d="M241.866,210.726a.452.452,0,1,1-.637.052A.452.452,0,0,1,241.866,210.726Z" transform="translate(-186.478 -137.155)" fill="#2c373f"/>
          <path id="Path_485" data-name="Path 485" d="M237.494,213.241a.452.452,0,1,1-.637.052A.452.452,0,0,1,237.494,213.241Z" transform="translate(-185.514 -137.709)" fill="#2c373f"/>
          <g id="Group_608" data-name="Group 608" transform="translate(53.506 71.389)">
            <path id="Path_486" data-name="Path 486" d="M241.564,208.252c-.045.144-.469.14-.934.281s-.826.356-.941.257.157-.592.794-.773S241.621,208.118,241.564,208.252Z" transform="translate(-239.662 -207.957)" fill="#2c373f"/>
          </g>
          <g id="Group_609" data-name="Group 609" transform="translate(49.485 73.616)">
            <path id="Path_487" data-name="Path 487" d="M234.539,212.438c-.113-.084.065-.569.5-1.054s1-.661,1.059-.523-.279.449-.664.885S234.662,212.531,234.539,212.438Z" transform="translate(-234.505 -210.814)" fill="#2c373f"/>
          </g>
          <path id="Path_488" data-name="Path 488" d="M231.387,217.546s-1.627-1.367-2.408-.13,3.514,1.888,3.514,1.888Z" transform="translate(-183.781 -138.538)" fill="#ffc5b1"/>
          <path id="Path_489" data-name="Path 489" d="M179.517,377.573a15.244,15.244,0,0,0-2.942,1.623c-.608.608-6.187,10.243-5.476,11.46s6.3-2.914,6.3-2.914-4.681.887,2.114-10.169" transform="translate(-171.036 -173.939)" fill="#6e5395"/>
          <path id="Path_490" data-name="Path 490" d="M239.671,393.914a12.133,12.133,0,0,0-1.913,2.613c-.256.822-.713,11.946.482,12.693s4.46-5.391,4.46-5.391-3.9,3.058-3.029-9.889" transform="translate(-185.67 -177.539)" fill="#6e5395"/>
        </g>
      </g>
    </g>
  </g>
</svg>
