<svg xmlns="http://www.w3.org/2000/svg" width="93.183" height="58.149" viewBox="0 0 93.183 58.149">
  <path id="Path_492" data-name="Path 492" d="M253.125,509.68H174.43a7.244,7.244,0,0,0-7.244,7.244v43.662a7.244,7.244,0,0,0,7.244,7.244h78.695a7.244,7.244,0,0,0,7.244-7.244V516.924A7.244,7.244,0,0,0,253.125,509.68Zm-70.6,12.127a2.234,2.234,0,0,1,2.235-2.234h27.786a2.234,2.234,0,0,1,2.235,2.234v13.265a2.234,2.234,0,0,1-2.235,2.235H184.764a2.234,2.234,0,0,1-2.235-2.235ZM244.8,557.937H184.764a2.234,2.234,0,1,1,0-4.469H244.8a2.234,2.234,0,0,1,0,4.469Zm0-9.266H184.764a2.234,2.234,0,1,1,0-4.469H244.8a2.234,2.234,0,0,1,0,4.469Z" transform="translate(-167.186 -509.68)" fill="#231f20" opacity="0.223"/>
</svg>
