<svg xmlns="http://www.w3.org/2000/svg" width="25" height="35" viewBox="0 0 25 35"><defs><linearGradient id="al19a" x1="12.24" x2="12.24" y1="-.13" y2="26.2" gradientUnits="userSpaceOnUse"><stop offset="0" stop-color="#ffe200"/><stop offset="1" stop-color="#ff6200"/></linearGradient><linearGradient id="al19b" x1="6.89" x2="6.89" y1="-.13" y2="26.2" gradientUnits="userSpaceOnUse"><stop offset="0" stop-color="#ffe200"/><stop offset="1" stop-color="#ff6200"/></linearGradient><linearGradient id="al19c" x1="12.79" x2="12.79" y1="23.15" y2="33.88" gradientUnits="userSpaceOnUse"><stop offset="0" stop-color="#ffe200"/><stop offset="1" stop-color="#ff6200"/></linearGradient><linearGradient id="al19d" x1="12.56" x2="12.56" y1="23.15" y2="33.88" gradientUnits="userSpaceOnUse"><stop offset="0" stop-color="#ffe200"/><stop offset="1" stop-color="#ff6200"/></linearGradient><linearGradient id="al19e" x1="12.79" x2="12.79" y1="33.33" y2="34.43" gradientUnits="userSpaceOnUse"><stop offset="0" stop-color="#ffe200"/><stop offset="1" stop-color="#ff6200"/></linearGradient></defs><g><g><g><path fill="url(#al19a)" d="M22.577 12.58a6.273 6.273 0 0 0 1.175-3.657 6.309 6.309 0 0 0-6.308-6.309c-.052 0-.102.007-.153.008a6.025 6.025 0 0 0-5.059-2.75A6.032 6.032 0 0 0 6.72 3.456C2.95 4.442.163 7.861.163 11.94c0 2.243.848 4.282 2.232 5.834a7.68 7.68 0 0 0 7.642 8.43c.463 0 2.304-.042 2.744-.12l.185-1.902a7.68 7.68 0 0 0 9.61-11.602z"/></g><g><path fill="url(#al19b)" d="M12.78 23.316c-.88.228-1.854.22-2.896-.272-1.41-.666-2.433-2.02-2.572-3.575a4.387 4.387 0 0 1 .192-1.738.543.543 0 0 0-.192-.58A6.014 6.014 0 0 1 5.1 12.489a6.028 6.028 0 0 1 3.536-5.487.552.552 0 0 0 .333-.553 5.392 5.392 0 0 1-.029-.544 6.032 6.032 0 0 1 4.657-5.87 6.017 6.017 0 0 0-1.365-.164A6.032 6.032 0 0 0 6.72 3.457C2.95 4.442.163 7.861.163 11.94c0 2.243.848 4.282 2.232 5.834a7.68 7.68 0 0 0 7.642 8.43c.463 0 2.304-.042 2.743-.12V23.316z"/></g><g><path fill="url(#al19c)" d="M11.683 23.46l-.052-.002-.496 10.425h3.291l-.485-10.2c-.018-.366-.384-.63-.726-.5-.477.178-.992.277-1.532.277z"/></g><g><path fill="url(#al19d)" d="M13.94 23.682c-.017-.365-.383-.629-.725-.5-.477.18-.992.278-1.532.278l-.052-.002-.496 10.426h1.646v-8.931c0-.236.15-.446.375-.52l.807-.27z"/></g><g><path fill="url(#al19e)" d="M15.524 34.432h-5.486a.548.548 0 1 1 0-1.097h5.486a.548.548 0 1 1 0 1.097z"/></g></g></g></svg>